<svg width="96" height="96" xmlns="http://www.w3.org/2000/svg" xmlns:xlink="http://www.w3.org/1999/xlink" xml:space="preserve" overflow="hidden"><defs><clipPath id="clip0"><rect x="392" y="238" width="96" height="96"/></clipPath></defs><g clip-path="url(#clip0)" transform="translate(-392 -238)"><path d="M456 268C456 276.837 448.837 284 440 284 431.163 284 424 276.837 424 268 424 259.163 431.163 252 440 252 448.837 252 456 259.163 456 268Z" fill="#FF7F27"/><path d="M472 320 472 304C472 301.6 470.8 299.2 468.8 297.6 464.4 294 458.8 291.6 453.2 290 449.2 288.8 444.8 288 440 288 435.6 288 431.2 288.8 426.8 290 421.2 291.6 415.6 294.4 411.2 297.6 409.2 299.2 408 301.6 408 304L408 320 472 320Z" fill="#FF7F27"/></g></svg>